HIERARCHY
ROOT Hips
{
	OFFSET 0.000000 87.230942 0.000000
	CHANNELS 6 Xposition Yposition Zposition Xrotation Yrotation Zrotation
	JOINT Pelvis
	{
		OFFSET 0.000000 0.000000 0.000000
		CHANNELS 3 Xrotation Yrotation Zrotation
		JOINT LeftUpLeg
		{
			OFFSET 12.017000 -9.376404 -2.439400
			CHANNELS 3 Xrotation Yrotation Zrotation
			JOINT LeftLeg
			{
				OFFSET -0.007312 -32.846973 2.110600
				CHANNELS 3 Xrotation Yrotation Zrotation
				JOINT LeftFoot
				{
					OFFSET 0.007312 -32.065170 -0.570400
					CHANNELS 3 Xrotation Yrotation Zrotation
					JOINT LeftToeBase
					{
						OFFSET 0.728300 -11.045900 13.180700
						CHANNELS 3 Xrotation Yrotation Zrotation
						End Site
						{
							OFFSET 0.000000 17.212589 0.000000
						}
					}
				}
				JOINT LeftPantLeg
				{
					OFFSET 0.002788 -16.709013 -3.143600
					CHANNELS 3 Xrotation Yrotation Zrotation
					End Site
					{
						OFFSET -0.605125 24.528742 0.000000
					}
				}
			}
			JOINT Left_Butt
			{
				OFFSET -6.630234 1.326584 -3.183700
				CHANNELS 3 Xrotation Yrotation Zrotation
				End Site
				{
					OFFSET -0.498041 20.188049 0.000000
				}
			}
		}
		JOINT RightUpLeg
		{
			OFFSET -11.717000 -9.376404 -2.439400
			CHANNELS 3 Xrotation Yrotation Zrotation
			JOINT RightLeg
			{
				OFFSET -0.003241 -32.846912 2.110600
				CHANNELS 3 Xrotation Yrotation Zrotation
				JOINT RightFoot
				{
					OFFSET 0.003241 -32.065136 -0.570500
					CHANNELS 3 Xrotation Yrotation Zrotation
					JOINT RightToeBase
					{
						OFFSET -0.728300 -11.045901 13.180700
						CHANNELS 3 Xrotation Yrotation Zrotation
						End Site
						{
							OFFSET 0.000000 17.212593 0.000000
						}
					}
				}
				JOINT RightPantLeg
				{
					OFFSET 0.008142 -16.708982 -3.143700
					CHANNELS 3 Xrotation Yrotation Zrotation
					End Site
					{
						OFFSET 0.605088 24.528715 0.000000
					}
				}
			}
			JOINT Right_Butt
			{
				OFFSET 6.630732 1.326584 -3.183700
				CHANNELS 3 Xrotation Yrotation Zrotation
				End Site
				{
					OFFSET 0.498015 20.188240 0.000000
				}
			}
		}
	}
	JOINT Spine
	{
		OFFSET -0.062400 7.848404 3.918300
		CHANNELS 3 Xrotation Yrotation Zrotation
		JOINT Spine1
		{
			OFFSET -0.072800 11.422302 0.713400
			CHANNELS 3 Xrotation Yrotation Zrotation
			JOINT Spine2
			{
				OFFSET -0.083200 13.054001 -1.931600
				CHANNELS 3 Xrotation Yrotation Zrotation
				JOINT Neck
				{
					OFFSET -0.092200 14.121796 -5.138800
					CHANNELS 3 Xrotation Yrotation Zrotation
					JOINT Head
					{
						OFFSET 0.000200 10.447403 -0.842000
						CHANNELS 3 Xrotation Yrotation Zrotation
						JOINT Visor
						{
							OFFSET 0.457100 25.671204 16.550400
							CHANNELS 3 Xrotation Yrotation Zrotation
							End Site
							{
								OFFSET 0.000000 26.061493 0.000000
							}
						}
						JOINT HairMidA
						{
							OFFSET 0.459400 31.585403 8.437400
							CHANNELS 3 Xrotation Yrotation Zrotation
							End Site
							{
								OFFSET 0.000000 26.061493 0.000000
							}
						}
						JOINT HairMidB
						{
							OFFSET 0.464000 33.309204 -8.389700
							CHANNELS 3 Xrotation Yrotation Zrotation
							End Site
							{
								OFFSET 0.000000 26.061493 0.000000
							}
						}
						JOINT HairMidC
						{
							OFFSET 0.466600 27.991196 -17.375099
							CHANNELS 3 Xrotation Yrotation Zrotation
							End Site
							{
								OFFSET 0.000000 26.061493 0.000000
							}
						}
						JOINT HairMidD
						{
							OFFSET 0.467700 17.888092 -21.169500
							CHANNELS 3 Xrotation Yrotation Zrotation
							End Site
							{
								OFFSET 0.000000 26.061493 0.000000
							}
						}
						JOINT HairMidE
						{
							OFFSET 5.325700 3.514603 -14.369699
							CHANNELS 3 Xrotation Yrotation Zrotation
							End Site
							{
								OFFSET 0.000000 26.061493 0.000000
							}
						}
						JOINT HairMidF
						{
							OFFSET -4.394100 3.514603 -14.372400
							CHANNELS 3 Xrotation Yrotation Zrotation
							End Site
							{
								OFFSET 0.000000 26.061493 0.000000
							}
						}
						JOINT HairLeftA
						{
							OFFSET 15.319900 25.746506 2.623300
							CHANNELS 3 Xrotation Yrotation Zrotation
							End Site
							{
								OFFSET 0.000000 26.061493 0.000000
							}
						}
						JOINT HairLeftB
						{
							OFFSET 12.619500 29.289398 -8.731499
							CHANNELS 3 Xrotation Yrotation Zrotation
							End Site
							{
								OFFSET 0.000000 26.061493 0.000000
							}
						}
						JOINT HairLeftC
						{
							OFFSET 15.714800 15.959900 2.909800
							CHANNELS 3 Xrotation Yrotation Zrotation
							End Site
							{
								OFFSET 0.000000 26.061493 0.000000
							}
						}
						JOINT HairLeftD
						{
							OFFSET 16.101700 18.437408 -7.553200
							CHANNELS 3 Xrotation Yrotation Zrotation
							End Site
							{
								OFFSET 0.000000 26.061493 0.000000
							}
						}
						JOINT HairLeftE
						{
							OFFSET 9.731900 17.915009 -18.316799
							CHANNELS 3 Xrotation Yrotation Zrotation
							End Site
							{
								OFFSET 0.000000 26.061493 0.000000
							}
						}
						JOINT HairLeftF
						{
							OFFSET 11.204300 4.953598 -9.668100
							CHANNELS 3 Xrotation Yrotation Zrotation
							End Site
							{
								OFFSET 0.000000 26.061493 0.000000
							}
						}
						JOINT HairRightA
						{
							OFFSET -14.397900 25.746307 2.615100
							CHANNELS 3 Xrotation Yrotation Zrotation
							End Site
							{
								OFFSET 0.000000 26.061493 0.000000
							}
						}
						JOINT HairRightB
						{
							OFFSET -11.691200 29.289200 -8.738199
							CHANNELS 3 Xrotation Yrotation Zrotation
							End Site
							{
								OFFSET 0.000000 26.061493 0.000000
							}
						}
						JOINT HairRightC
						{
							OFFSET -14.792900 15.959702 2.901400
							CHANNELS 3 Xrotation Yrotation Zrotation
							End Site
							{
								OFFSET 0.000000 26.061493 0.000000
							}
						}
						JOINT HairRightD
						{
							OFFSET -15.174000 18.437195 -7.561900
							CHANNELS 3 Xrotation Yrotation Zrotation
							End Site
							{
								OFFSET 0.000000 26.061493 0.000000
							}
						}
						JOINT HairRightE
						{
							OFFSET -8.798200 17.914902 -18.322001
							CHANNELS 3 Xrotation Yrotation Zrotation
							End Site
							{
								OFFSET 0.000000 26.061493 0.000000
							}
						}
						JOINT HairRightF
						{
							OFFSET -10.275200 4.953506 -9.674099
							CHANNELS 3 Xrotation Yrotation Zrotation
							End Site
							{
								OFFSET 0.000000 26.061493 0.000000
							}
						}
					}
				}
				JOINT LeftShoulder
				{
					OFFSET 5.133500 7.341202 -1.867600
					CHANNELS 3 Xrotation Yrotation Zrotation
					JOINT LeftArm
					{
						OFFSET 8.072663 0.936867 -2.176600
						CHANNELS 3 Xrotation Yrotation Zrotation
						JOINT LeftForeArm
						{
							OFFSET 31.271999 0.000000 0.000000
							CHANNELS 3 Xrotation Yrotation Zrotation
							JOINT LeftHand
							{
								OFFSET 31.771030 0.000000 0.000000
								CHANNELS 3 Xrotation Yrotation Zrotation
								JOINT LeftHandThumb1
								{
									OFFSET 2.886520 -2.557846 4.416640
									CHANNELS 3 Xrotation Yrotation Zrotation
									JOINT LeftHandThumb2
									{
										OFFSET 2.371025 -1.368912 1.368911
										CHANNELS 3 Xrotation Yrotation Zrotation
										JOINT LeftHandThumb3
										{
											OFFSET 2.243378 -1.295212 1.295213
											CHANNELS 3 Xrotation Yrotation Zrotation
											End Site
											{
												OFFSET -0.332611 2.876945 0.020015
											}
										}
									}
								}
								JOINT LeftHandIndex1
								{
									OFFSET 8.568985 -0.641945 3.119977
									CHANNELS 3 Xrotation Yrotation Zrotation
									JOINT LeftHandIndex2
									{
										OFFSET 3.348503 0.000000 0.000000
										CHANNELS 3 Xrotation Yrotation Zrotation
										JOINT LeftHandIndex3
										{
											OFFSET 3.314552 0.000000 0.000000
											CHANNELS 3 Xrotation Yrotation Zrotation
											End Site
											{
												OFFSET -1.032898 3.075485 0.678796
											}
										}
									}
								}
								JOINT LeftHandMiddle1
								{
									OFFSET 8.124603 0.000000 0.000000
									CHANNELS 3 Xrotation Yrotation Zrotation
									JOINT LeftHandMiddle2
									{
										OFFSET 4.166275 0.000000 0.000000
										CHANNELS 3 Xrotation Yrotation Zrotation
										JOINT LeftHandMiddle3
										{
											OFFSET 3.018135 0.000000 0.000000
											CHANNELS 3 Xrotation Yrotation Zrotation
											End Site
											{
												OFFSET -1.032700 2.767982 0.617226
											}
										}
									}
								}
								JOINT LeftHandRing1
								{
									OFFSET 8.571686 -0.031357 -2.884048
									CHANNELS 3 Xrotation Yrotation Zrotation
									JOINT LeftHandRing2
									{
										OFFSET 3.671181 0.000000 0.000000
										CHANNELS 3 Xrotation Yrotation Zrotation
										JOINT LeftHandRing3
										{
											OFFSET 2.728851 0.000000 0.000000
											CHANNELS 3 Xrotation Yrotation Zrotation
											End Site
											{
												OFFSET -0.815796 2.539223 0.577389
											}
										}
									}
								}
								JOINT LeftHandPinky1
								{
									OFFSET 7.854515 -0.675232 -5.213020
									CHANNELS 3 Xrotation Yrotation Zrotation
									JOINT LeftHandPinky2
									{
										OFFSET 3.068596 0.000000 0.000000
										CHANNELS 3 Xrotation Yrotation Zrotation
										JOINT LeftHandPinky3
										{
											OFFSET 2.396042 0.000000 0.000000
											CHANNELS 3 Xrotation Yrotation Zrotation
											End Site
											{
												OFFSET -0.524597 2.267998 0.567429
											}
										}
									}
								}
							}
							JOINT LeftSleeve
							{
								OFFSET 19.684509 -0.200119 0.476146
								CHANNELS 3 Xrotation Yrotation Zrotation
								End Site
								{
									OFFSET -0.031017 25.731133 -0.002868
								}
							}
						}
					}
				}
				JOINT RightShoulder
				{
					OFFSET -4.395900 7.341202 -1.870200
					CHANNELS 3 Xrotation Yrotation Zrotation
					JOINT RightArm
					{
						OFFSET -8.071453 0.936867 -2.181100
						CHANNELS 3 Xrotation Yrotation Zrotation
						JOINT RightForeArm
						{
							OFFSET -31.272011 0.000000 0.000000
							CHANNELS 3 Xrotation Yrotation Zrotation
							JOINT RightHand
							{
								OFFSET -31.771019 0.000000 0.000000
								CHANNELS 3 Xrotation Yrotation Zrotation
								JOINT RightHandThumb1
								{
									OFFSET -2.886520 -2.557808 4.416626
									CHANNELS 3 Xrotation Yrotation Zrotation
									JOINT RightHandThumb2
									{
										OFFSET -2.371056 -1.368927 1.368928
										CHANNELS 3 Xrotation Yrotation Zrotation
										JOINT RightHandThumb3
										{
											OFFSET -2.243362 -1.295204 1.295206
											CHANNELS 3 Xrotation Yrotation Zrotation
											End Site
											{
												OFFSET 0.332642 2.876938 0.020047
											}
										}
									}
								}
								JOINT RightHandIndex1
								{
									OFFSET -8.568993 -0.641953 3.120017
									CHANNELS 3 Xrotation Yrotation Zrotation
									JOINT RightHandIndex2
									{
										OFFSET -3.348518 0.000000 0.000000
										CHANNELS 3 Xrotation Yrotation Zrotation
										JOINT RightHandIndex3
										{
											OFFSET -3.314552 0.000000 0.000000
											CHANNELS 3 Xrotation Yrotation Zrotation
											End Site
											{
												OFFSET 1.032898 3.075478 0.678804
											}
										}
									}
								}
								JOINT RightHandMiddle1
								{
									OFFSET -8.124588 0.000000 0.000000
									CHANNELS 3 Xrotation Yrotation Zrotation
									JOINT RightHandMiddle2
									{
										OFFSET -4.166275 0.000000 0.000000
										CHANNELS 3 Xrotation Yrotation Zrotation
										JOINT RightHandMiddle3
										{
											OFFSET -3.018097 0.000000 0.000000
											CHANNELS 3 Xrotation Yrotation Zrotation
											End Site
											{
												OFFSET 1.032700 2.767937 0.617197
											}
										}
									}
								}
								JOINT RightHandRing1
								{
									OFFSET -8.571747 -0.031349 -2.884061
									CHANNELS 3 Xrotation Yrotation Zrotation
									JOINT RightHandRing2
									{
										OFFSET -3.671204 0.000000 0.000000
										CHANNELS 3 Xrotation Yrotation Zrotation
										JOINT RightHandRing3
										{
											OFFSET -2.728874 0.000000 0.000000
											CHANNELS 3 Xrotation Yrotation Zrotation
											End Site
											{
												OFFSET 0.815804 2.539261 0.577413
											}
										}
									}
								}
								JOINT RightHandPinky1
								{
									OFFSET -7.854561 -0.675247 -5.212970
									CHANNELS 3 Xrotation Yrotation Zrotation
									JOINT RightHandPinky2
									{
										OFFSET -3.068550 0.000000 0.000000
										CHANNELS 3 Xrotation Yrotation Zrotation
										JOINT RightHandPinky3
										{
											OFFSET -2.395981 0.000000 0.000000
											CHANNELS 3 Xrotation Yrotation Zrotation
											End Site
											{
												OFFSET 0.524605 2.267952 0.567413
											}
										}
									}
								}
							}
							JOINT RightSleeve
							{
								OFFSET -19.684753 -0.200165 0.476065
								CHANNELS 3 Xrotation Yrotation Zrotation
								End Site
								{
									OFFSET 0.031342 25.731255 -0.002917
								}
							}
						}
					}
				}
				JOINT Hood
				{
					OFFSET 0.369700 14.447800 -5.317800
					CHANNELS 3 Xrotation Yrotation Zrotation
					JOINT Hood1
					{
						OFFSET 0.001700 -5.553802 -5.895100
						CHANNELS 3 Xrotation Yrotation Zrotation
						JOINT Hood2
						{
							OFFSET -0.000200 -8.380501 0.763600
							CHANNELS 3 Xrotation Yrotation Zrotation
							End Site
							{
								OFFSET 0.000000 8.415215 0.000000
							}
						}
					}
				}
				JOINT Left_Breast
				{
					OFFSET 5.682500 3.120102 3.188800
					CHANNELS 3 Xrotation Yrotation Zrotation
					End Site
					{
						OFFSET 0.000000 10.528564 0.000000
					}
				}
				JOINT Right_Breast
				{
					OFFSET -4.947600 3.120102 3.185900
					CHANNELS 3 Xrotation Yrotation Zrotation
					End Site
					{
						OFFSET 0.000000 10.528564 0.000000
					}
				}
				JOINT Whistle
				{
					OFFSET 0.368200 11.471298 0.095400
					CHANNELS 3 Xrotation Yrotation Zrotation
					JOINT Whistle1
					{
						OFFSET -0.002000 -6.349899 7.479800
						CHANNELS 3 Xrotation Yrotation Zrotation
						JOINT Whistle2
						{
							OFFSET -0.001300 -8.217598 4.717600
							CHANNELS 3 Xrotation Yrotation Zrotation
							End Site
							{
								OFFSET 0.000000 9.475479 0.000000
							}
						}
					}
				}
			}
		}
		JOINT Belly
		{
			OFFSET 0.212400 1.593002 3.163700
			CHANNELS 3 Xrotation Yrotation Zrotation
			End Site
			{
				OFFSET 0.000000 7.496635 0.000000
			}
		}
	}
	JOINT FitGrandmaFacialAnim_Joint
	{
		OFFSET 1.150000 -86.211197 -1.220100
		CHANNELS 3 Xrotation Yrotation Zrotation
		End Site
		{
			OFFSET 0.000000 31.666618 0.000000
		}
	}
}
MOTION
Frames: 4
Frame Time: 0.016667
-2.483344 76.986244 0.995868 3.011893 -58.236119 6.473007 0.000000 0.000003 -0.000000 -31.699851 10.715670 25.373630 44.302253 -9.071737 -10.059846 -14.569798 -2.368129 -8.878502 -0.000000 0.000001 -0.000000 0.000000 -0.000000 -0.000000 -0.000003 -0.000001 -0.000001 -29.500898 -9.418085 -26.774427 50.832372 3.539466 -7.809474 -25.433029 1.445617 21.748584 0.000000 0.000001 0.000000 0.000000 -0.000002 0.000001 0.000001 -0.000001 0.000000 11.191396 0.108694 -2.692099 8.434585 0.027705 -5.592322 8.457052 0.027854 -5.591862 -21.555645 25.063369 12.062564 -0.294040 25.465754 -3.208976 0.000000 0.000000 -0.000000 0.000000 0.000000 -0.000000 0.000000 0.000000 -0.000000 0.000000 0.000000 -0.000000 0.000000 0.000000 -0.000000 0.000000 0.000000 -0.000000 0.000000 0.000000 -0.000000 0.000000 0.000000 -0.000000 0.000000 0.000000 -0.000000 0.000000 0.000000 -0.000000 0.000000 0.000000 -0.000000 0.000000 0.000000 -0.000000 0.000000 0.000000 -0.000000 0.000000 0.000000 -0.000000 0.000000 0.000000 -0.000000 0.000000 0.000000 -0.000000 0.000000 0.000000 -0.000000 0.000000 0.000000 -0.000000 0.000000 0.000000 -0.000000 -6.221668 -11.503854 -4.023829 -23.062173 9.568543 -36.639600 0.046097 -43.169128 -0.011191 22.743748 -5.685875 15.979282 -1.064241 -7.954899 8.490090 2.373401 19.986107 -2.038337 -0.000001 0.000001 -0.000001 13.340874 -1.006637 10.682271 -0.167587 0.303344 -31.105634 -0.000001 -0.000000 -0.000001 8.495445 -0.329550 -0.915300 0.231513 0.661192 -29.901875 -0.000000 0.000000 0.000000 6.111748 3.150920 -16.210962 0.047067 0.322414 -30.125478 0.000001 -0.000000 0.000000 -5.636036 7.709856 -13.878608 0.224381 0.276578 -46.588379 -0.000002 -0.000000 0.000002 -0.000001 0.000001 -0.000000 -5.488234 10.658255 2.466537 -41.473810 -26.755586 30.079088 24.955462 111.863015 -23.308456 -8.702507 12.423036 -9.801971 0.265018 10.061118 -10.888485 1.383810 -17.412876 3.016285 -0.000002 -0.000000 0.000001 19.443609 11.174421 -13.340198 -0.118661 -0.322720 18.035598 -0.000002 0.000002 0.000000 4.320488 2.436939 -4.811723 0.349138 -0.461243 26.890334 -0.000002 0.000002 -0.000001 -7.005634 -10.695125 5.719833 0.111875 -0.089216 26.155894 -0.000002 -0.000001 -0.000001 -19.433507 -20.238201 5.987863 0.223780 -0.085804 36.844561 0.000000 -0.000001 0.000001 0.000000 0.000003 0.000001 0.000001 0.000001 -0.000000 0.000001 0.000001 -0.000000 0.000001 0.000001 -0.000000 0.000001 0.000001 -0.000000 0.000001 0.000001 -0.000000 0.000001 0.000001 0.000000 -0.000000 -0.000001 0.000001 -0.000000 -0.000001 0.000001 -0.000000 -0.000003 0.000001 0.000000 0.000003 -0.000000 
-2.488188 76.960663 1.052422 2.473849 -58.230621 5.941820 -0.000000 -0.000003 0.000000 -31.516692 10.656056 25.426687 44.593219 -9.154180 -9.975802 -14.773183 -2.316208 -8.878088 -0.000000 0.000000 -0.000000 -0.000002 -0.000000 -0.000000 -0.000003 -0.000000 0.000001 -29.424766 -9.863748 -27.251203 50.961380 4.222616 -7.396158 -25.525660 1.582872 21.276401 0.000000 -0.000003 -0.000000 -0.000001 0.000003 -0.000001 0.000002 0.000001 -0.000002 11.181074 0.095713 -2.670458 8.413344 0.007705 -5.542169 8.435804 0.007767 -5.541679 -21.652145 24.945116 12.088956 0.094811 25.159311 -2.954654 -0.000000 -0.000001 -0.000000 -0.000000 -0.000001 -0.000000 -0.000000 -0.000001 -0.000000 -0.000000 -0.000001 -0.000000 -0.000000 -0.000001 -0.000000 -0.000000 -0.000001 -0.000000 -0.000000 -0.000001 -0.000000 -0.000000 -0.000001 -0.000000 -0.000000 -0.000001 -0.000000 -0.000000 -0.000001 -0.000000 -0.000000 -0.000001 -0.000000 -0.000000 -0.000001 -0.000000 -0.000000 -0.000001 -0.000000 -0.000000 -0.000001 -0.000000 -0.000000 -0.000001 -0.000000 -0.000000 -0.000001 -0.000000 -0.000000 -0.000001 -0.000000 -0.000000 -0.000001 -0.000000 -0.000000 -0.000001 -0.000000 -6.261260 -11.506445 -4.015203 -22.811119 9.698583 -36.516616 0.794419 -43.624125 0.229708 22.724106 -5.775175 15.786083 -1.337185 -8.592352 8.462111 2.372314 19.986687 -2.038317 -0.000000 -0.000001 -0.000001 13.509669 -1.097518 9.424775 -0.159041 0.305426 -31.104046 -0.000000 0.000000 0.000000 8.477590 -0.230312 -1.799015 0.234807 0.664013 -29.734347 0.000001 -0.000005 -0.000001 6.088937 3.437406 -16.790625 0.051258 0.330274 -29.912083 -0.000001 0.000002 0.000001 -5.699348 8.273526 -13.976713 0.209830 0.283975 -46.588492 -0.000002 0.000003 -0.000001 0.000004 0.000001 -0.000003 -5.513963 10.443171 2.326547 -40.253481 -26.263790 30.874299 22.710835 111.299469 -21.321730 -8.758543 12.223503 -9.454589 -0.163829 10.339069 -11.464019 1.370524 -17.420157 3.013299 0.000001 -0.000003 -0.000002 19.534076 10.739025 -14.196805 -0.102112 -0.326673 17.430849 0.000002 0.000001 -0.000006 4.417745 2.218609 -5.481774 0.352846 -0.461298 26.461889 0.000001 -0.000000 -0.000001 -6.982958 -10.920046 5.218386 0.085182 -0.090073 25.880167 -0.000001 -0.000001 -0.000001 -19.427684 -20.205267 5.922285 0.228615 -0.095082 36.799550 -0.000003 -0.000002 0.000001 0.000002 -0.000001 0.000000 -0.000002 0.000000 -0.000000 -0.000002 0.000000 -0.000000 -0.000002 0.000000 -0.000000 -0.000002 0.000000 -0.000000 -0.000002 0.000000 -0.000000 -0.000002 0.000000 -0.000002 -0.000002 -0.000003 -0.000000 -0.000002 -0.000003 -0.000000 -0.000000 -0.000000 0.000000 -0.000000 -0.000003 0.000000 
-2.570206 76.857262 1.221311 1.753142 -58.171485 5.236675 0.000000 0.000002 -0.000000 -31.328404 10.512961 25.556975 45.283300 -9.369821 -9.964655 -15.290517 -2.255847 -8.794858 0.000000 0.000000 0.000000 -0.000000 0.000001 0.000000 0.000003 0.000002 0.000002 -29.167097 -10.274937 -27.746682 51.260003 4.820808 -7.100340 -25.833941 1.619411 21.037790 0.000000 0.000002 -0.000000 -0.000001 0.000002 -0.000002 0.000000 -0.000000 -0.000000 11.142152 0.062507 -2.608599 8.334210 -0.045772 -5.404243 8.356670 -0.045655 -5.403792 -21.836689 24.626039 12.153089 0.665322 24.715292 -2.781586 0.000001 0.000000 -0.000000 0.000001 0.000000 -0.000000 0.000001 0.000000 -0.000000 0.000001 0.000000 -0.000000 0.000001 0.000000 -0.000000 0.000001 0.000000 -0.000000 0.000001 0.000000 -0.000000 0.000001 0.000000 -0.000000 0.000001 0.000000 -0.000000 0.000001 0.000000 -0.000000 0.000001 0.000000 -0.000000 0.000001 0.000000 -0.000000 0.000001 0.000000 -0.000000 0.000001 0.000000 -0.000000 0.000001 0.000000 -0.000000 0.000001 0.000000 -0.000000 0.000001 0.000000 -0.000000 0.000001 0.000000 -0.000000 0.000001 0.000000 -0.000000 -6.328838 -11.488496 -3.983638 -22.131660 10.073043 -36.144036 2.769385 -44.886876 0.926418 22.664456 -6.014919 15.253923 -1.443761 -9.455558 7.932146 2.372322 19.986686 -2.038382 -0.000000 -0.000001 -0.000001 13.845178 -1.532794 7.580813 -0.159335 0.304558 -30.882871 0.000001 0.000000 0.000001 8.524447 -0.343989 -3.219835 0.234595 0.663857 -29.653014 0.000001 -0.000005 -0.000004 6.136548 3.595757 -17.915513 0.051096 0.329978 -29.853606 0.000001 0.000002 -0.000001 -5.678647 8.863568 -14.718658 0.209865 0.283884 -46.588526 -0.000001 -0.000002 0.000001 -0.000002 0.000001 -0.000001 -5.548065 9.865996 1.937133 -37.030537 -24.874072 32.856926 15.981627 109.909184 -15.220757 -8.898767 11.688157 -8.523753 -1.286782 11.106082 -12.958738 1.370516 -17.420138 3.013321 0.000003 0.000002 0.000001 19.732833 9.623652 -16.324690 -0.104594 -0.322120 15.920288 -0.000002 -0.000000 -0.000001 4.635085 1.638542 -7.129004 0.347189 -0.458713 25.403429 -0.000001 0.000003 -0.000003 -6.943925 -11.513882 4.011798 0.085680 -0.087022 25.221628 0.000000 0.000001 0.000001 -19.419922 -20.160456 5.828226 0.228568 -0.095016 36.736524 -0.000003 -0.000001 0.000000 0.000000 -0.000001 -0.000001 0.000003 0.000002 -0.000000 0.000003 0.000002 -0.000000 0.000003 0.000002 -0.000000 0.000003 0.000002 -0.000000 0.000003 0.000002 -0.000000 0.000002 0.000002 0.000001 0.000002 0.000002 0.000001 0.000002 0.000002 0.000001 -0.000000 -0.000002 -0.000000 0.000000 0.000002 -0.000000 
-2.716935 76.718178 1.472362 0.906283 -58.055945 4.403928 0.000000 0.000002 0.000000 -31.110467 10.400070 25.806666 46.128888 -9.781251 -10.071666 -15.967908 -2.206173 -8.581440 -0.000000 -0.000000 0.000000 0.000000 0.000001 -0.000002 -0.000003 -0.000003 0.000004 -28.701496 -10.655995 -28.172324 51.594378 5.248894 -6.933343 -26.261580 1.582722 20.980055 0.000000 0.000001 -0.000000 0.000000 0.000000 -0.000003 0.000001 0.000002 -0.000000 11.077086 0.013845 -2.515468 8.202124 -0.124055 -5.198296 8.224613 -0.123940 -5.197833 -22.026528 24.153029 12.233262 1.675682 24.083961 -2.871052 -0.000000 0.000000 -0.000001 -0.000000 0.000000 -0.000001 -0.000000 0.000000 -0.000001 -0.000000 0.000000 -0.000001 -0.000000 0.000000 -0.000001 -0.000000 0.000000 -0.000001 -0.000000 0.000000 -0.000001 -0.000000 0.000000 -0.000001 -0.000000 0.000000 -0.000001 -0.000000 0.000000 -0.000001 -0.000000 0.000000 -0.000001 -0.000000 0.000000 -0.000001 -0.000000 0.000000 -0.000001 -0.000000 0.000000 -0.000001 -0.000000 0.000000 -0.000001 -0.000000 0.000000 -0.000001 -0.000000 0.000000 -0.000001 -0.000000 0.000000 -0.000001 -0.000000 0.000000 -0.000001 -6.417287 -11.419005 -3.918489 -21.132125 10.674320 -35.524466 5.610351 -46.795497 2.096773 22.562468 -6.361025 14.453064 -1.492405 -10.414532 7.157430 2.372309 19.986682 -2.038311 -0.000000 -0.000000 -0.000001 14.236168 -2.165268 5.410900 -0.159334 0.304516 -30.877144 0.000003 -0.000001 0.000002 8.587910 -0.569225 -4.948589 0.234555 0.663834 -29.620215 -0.000000 -0.000002 -0.000000 6.219785 3.684105 -19.350749 0.051123 0.329984 -29.860231 0.000003 0.000001 0.000001 -5.600372 9.470233 -15.793796 0.209838 0.283936 -46.588546 -0.000001 -0.000001 -0.000001 -0.000002 0.000002 -0.000003 -5.599953 9.021876 1.345360 -32.495103 -22.695865 35.348145 4.343967 108.342134 -4.332249 -9.075123 10.910036 -7.177486 -2.857426 12.259151 -15.019026 1.370533 -17.420169 3.013331 0.000001 -0.000002 -0.000002 19.872219 8.134576 -19.053725 -0.107672 -0.316145 13.960274 0.000001 0.000002 -0.000002 4.859960 0.812315 -9.209673 0.340092 -0.454400 24.055610 -0.000001 -0.000003 -0.000004 -6.928780 -12.352424 2.546289 0.086263 -0.083366 24.433236 0.000001 0.000002 0.000003 -19.409219 -20.187480 5.864937 0.228626 -0.095069 36.763729 0.000001 -0.000001 -0.000000 0.000001 -0.000000 0.000001 0.000002 -0.000002 -0.000000 0.000002 -0.000002 -0.000000 0.000002 -0.000002 -0.000000 0.000002 -0.000002 -0.000000 0.000002 -0.000002 -0.000000 0.000002 -0.000002 -0.000001 -0.000000 -0.000001 0.000001 -0.000000 -0.000001 0.000001 -0.000000 0.000001 -0.000000 0.000000 0.000002 0.000000 
